<svg xmlns="http://www.w3.org/2000/svg" width="860" height="622" viewBox="0 0 860 622" font-family="ui-monospace, SFMono-Regular, Menlo, Consolas, monospace" font-size="14">
<rect width="860" height="622" rx="10" fill="#1e1e2e"/>
<rect width="860" height="32" rx="10" fill="#313244"/>
<circle cx="20" cy="16" r="6" fill="#f38ba8"/><circle cx="42" cy="16" r="6" fill="#f9e2af"/><circle cx="64" cy="16" r="6" fill="#a6e3a1"/>
<text x="88" y="21" fill="#cdd6f4" font-size="13">bash — the enforced loop</text>
<style>
.prompt{fill:#89dceb;font-weight:600}
.cmd{fill:#cdd6f4}
.out{fill:#a6adc8}
.ok{fill:#a6e3a1}
.block{fill:#f38ba8}
.dim{fill:#6c7086}
</style>
<text x="20" y="52" class="prompt">$ internify boot</text>
<text x="20" y="74" class="out"># CONTEXT — session pack</text>
<text x="20" y="96" class="out">## Last daily</text>
<text x="20" y="118" class="out">- file: .intern/daily/09-09-2026.md</text>
<text x="20" y="140" class="out">## Active task</text>
<text x="20" y="162" class="out">- (no active task)</text>
<text x="20" y="184" class="out">## Available specs</text>
<text x="20" y="206" class="out">- FeatureX</text>
<text x="20" y="228" class="out"></text>
<text x="20" y="250" class="prompt">$ internify index .intern/plans/FeatureX</text>
<text x="20" y="272" class="ok">INDEX built. task=featurex reads=4</text>
<text x="20" y="294" class="out"></text>
<text x="20" y="316" class="prompt">$ internify gate edit src/Feature.swift   # before reads</text>
<text x="20" y="338" class="block">BLOCKED: cannot edit in phase "orient". Declare a step via intern_step.</text>
<text x="20" y="360" class="out"></text>
<text x="20" y="382" class="prompt">$ internify read src/Feature.swift        # satisfies the read gate</text>
<text x="20" y="404" class="prompt">$ internify step S1 A1</text>
<text x="20" y="426" class="ok">Step S1 active (anchor A1).</text>
<text x="20" y="448" class="out"></text>
<text x="20" y="470" class="prompt">$ internify gate edit src/Feature.swift   # now allowed</text>
<text x="20" y="492" class="ok">OK: src/Feature.swift is editable.</text>
<text x="20" y="514" class="out"></text>
<text x="20" y="536" class="prompt">$ internify evidence S1 --claim wired --proof read --result pass</text>
<text x="20" y="558" class="prompt">$ internify close</text>
<text x="20" y="580" class="ok">Task featurex closed. Daily: .intern/daily/10-09-2026.md</text>
</svg>